<?xml version="1.0" standalone="no"?>
 <!DOCTYPE svg PUBLIC "-//W3C//DTD SVG 1.1//EN" 
 "http://www.w3.org/Graphics/SVG/1.1/DTD/svg11.dtd"> 
<svg xmlns="http://www.w3.org/2000/svg" version="1.1" 
    width="59.4004cm" height="41.9989cm" viewBox="0 0 233860 165350 ">
<title>SVG Picture created as VT  Backplate-B_Fab.svg date 2019/12/31 17:55:32 </title>
  <desc>Picture generated by PCBNEW </desc>
<g style="fill:#000000; fill-opacity:1;stroke:#000000; stroke-opacity:1;
stroke-linecap:round; stroke-linejoin:round; "
 transform="translate(0 0) scale(1 1)">
</g>
<g style="fill:#000000; fill-opacity:0.0; 
stroke:#000000; stroke-width:-0.000393701; stroke-opacity:1; 
stroke-linecap:round; stroke-linejoin:round;">
</g>
<g style="fill:#000084; fill-opacity:0.0; 
stroke:#000084; stroke-width:-0.000393701; stroke-opacity:1; 
stroke-linecap:round; stroke-linejoin:round;">
</g>
<g style="fill:#000084; fill-opacity:0.0; 
stroke:#000084; stroke-width:196.85; stroke-opacity:1; 
stroke-linecap:round; stroke-linejoin:round;">
<path d="M55037 71135
L54250 71135
" />
<path d="M54250 72373
L54250 70011
L55375 70011
" />
<path d="M56275 72373
L56275 70798
" />
<path d="M56275 71248
L56387 71023
L56500 70910
L56725 70798
L56950 70798
" />
<path d="M58074 72373
L57849 72260
L57737 72148
L57625 71923
L57625 71248
L57737 71023
L57849 70910
L58074 70798
L58412 70798
L58637 70910
L58749 71023
L58862 71248
L58862 71923
L58749 72148
L58637 72260
L58412 72373
L58074 72373
" />
<path d="M59874 70798
L59874 72373
" />
<path d="M59874 71023
L59987 70910
L60212 70798
L60549 70798
L60774 70910
L60887 71135
L60887 72373
" />
<path d="M61674 70798
L62574 70798
" />
<path d="M62011 70011
L62011 72035
L62124 72260
L62349 72373
L62574 72373
" />
<path d="M65499 72373
L65274 72260
L65161 72148
L65049 71923
L65049 71248
L65161 71023
L65274 70910
L65499 70798
L65836 70798
L66061 70910
L66173 71023
L66286 71248
L66286 71923
L66173 72148
L66061 72260
L65836 72373
L65499 72373
" />
<path d="M66961 70798
L67861 70798
" />
<path d="M67298 72373
L67298 70348
L67411 70123
L67636 70011
L67861 70011
" />
<path d="M70110 70798
L71010 70798
" />
<path d="M70448 70011
L70448 72035
L70560 72260
L70785 72373
L71010 72373
" />
<path d="M71798 72373
L71798 70011
" />
<path d="M72810 72373
L72810 71135
L72698 70910
L72473 70798
L72135 70798
L71910 70910
L71798 71023
" />
<path d="M74835 72260
L74610 72373
L74160 72373
L73935 72260
L73822 72035
L73822 71135
L73935 70910
L74160 70798
L74610 70798
L74835 70910
L74947 71135
L74947 71360
L73822 71585
" />
<path d="M77760 72373
L77760 70011
" />
<path d="M77760 70910
L77984 70798
L78434 70798
L78659 70910
L78772 71023
L78884 71248
L78884 71923
L78772 72148
L78659 72260
L78434 72373
L77984 72373
L77760 72260
" />
<path d="M80909 72373
L80909 71135
L80797 70910
L80572 70798
L80122 70798
L79897 70910
" />
<path d="M80909 72260
L80684 72373
L80122 72373
L79897 72260
L79784 72035
L79784 71810
L79897 71585
L80122 71473
L80684 71473
L80909 71360
" />
<path d="M83046 72260
L82821 72373
L82371 72373
L82146 72260
L82034 72148
L81921 71923
L81921 71248
L82034 71023
L82146 70910
L82371 70798
L82821 70798
L83046 70910
" />
<path d="M84059 72373
L84059 70011
" />
<path d="M84284 71473
L84959 72373
" />
<path d="M84959 70798
L84059 71698
" />
<path d="M85971 70798
L85971 73160
" />
<path d="M85971 70910
L86196 70798
L86646 70798
L86871 70910
L86983 71023
L87096 71248
L87096 71923
L86983 72148
L86871 72260
L86646 72373
L86196 72373
L85971 72260
" />
<path d="M88446 72373
L88221 72260
L88108 72035
L88108 70011
" />
<path d="M90358 72373
L90358 71135
L90245 70910
L90020 70798
L89571 70798
L89346 70910
" />
<path d="M90358 72260
L90133 72373
L89571 72373
L89346 72260
L89233 72035
L89233 71810
L89346 71585
L89571 71473
L90133 71473
L90358 71360
" />
<path d="M91145 70798
L92045 70798
" />
<path d="M91483 70011
L91483 72035
L91595 72260
L91820 72373
L92045 72373
" />
<path d="M93733 72260
L93508 72373
L93058 72373
L92833 72260
L92720 72035
L92720 71135
L92833 70910
L93058 70798
L93508 70798
L93733 70910
L93845 71135
L93845 71360
L92720 71585
" />
<path d="M96320 70798
L97220 70798
" />
<path d="M96657 70011
L96657 72035
L96770 72260
L96995 72373
L97220 72373
" />
<path d="M98007 72373
L98007 70011
" />
<path d="M99019 72373
L99019 71135
L98907 70910
L98682 70798
L98344 70798
L98119 70910
L98007 71023
" />
<path d="M101044 72260
L100819 72373
L100369 72373
L100144 72260
L100032 72035
L100032 71135
L100144 70910
L100369 70798
L100819 70798
L101044 70910
L101157 71135
L101157 71360
L100032 71585
" />
<path d="M103856 72260
L104081 72373
L104531 72373
L104756 72260
L104869 72035
L104869 71923
L104756 71698
L104531 71585
L104194 71585
L103969 71473
L103856 71248
L103856 71135
L103969 70910
L104194 70798
L104531 70798
L104756 70910
" />
<path d="M105881 72373
L105881 70798
" />
<path d="M105881 70011
L105769 70123
L105881 70236
L105993 70123
L105881 70011
L105881 70236
" />
<path d="M108018 72373
L108018 70011
" />
<path d="M108018 72260
L107793 72373
L107343 72373
L107118 72260
L107006 72148
L106893 71923
L106893 71248
L107006 71023
L107118 70910
L107343 70798
L107793 70798
L108018 70910
" />
<path d="M110043 72260
L109818 72373
L109368 72373
L109143 72260
L109031 72035
L109031 71135
L109143 70910
L109368 70798
L109818 70798
L110043 70910
L110155 71135
L110155 71360
L109031 71585
" />
<path d="M112630 70798
L113530 70798
" />
<path d="M112968 70011
L112968 72035
L113080 72260
L113305 72373
L113530 72373
" />
<path d="M114317 72373
L114317 70011
" />
<path d="M115330 72373
L115330 71135
L115217 70910
L114992 70798
L114655 70798
L114430 70910
L114317 71023
" />
<path d="M117467 72373
L117467 71135
L117355 70910
L117130 70798
L116680 70798
L116455 70910
" />
<path d="M117467 72260
L117242 72373
L116680 72373
L116455 72260
L116342 72035
L116342 71810
L116455 71585
L116680 71473
L117242 71473
L117467 71360
" />
<path d="M118254 70798
L119154 70798
" />
<path d="M118592 70011
L118592 72035
L118704 72260
L118929 72373
L119154 72373
" />
<path d="M121742 72373
L121742 70798
" />
<path d="M121742 70011
L121629 70123
L121742 70236
L121854 70123
L121742 70011
L121742 70236
" />
<path d="M122754 72260
L122979 72373
L123429 72373
L123654 72260
L123766 72035
L123766 71923
L123654 71698
L123429 71585
L123091 71585
L122866 71473
L122754 71248
L122754 71135
L122866 70910
L123091 70798
L123429 70798
L123654 70910
" />
<path d="M126241 70798
L127141 70798
" />
<path d="M126578 72373
L126578 70348
L126691 70123
L126916 70011
L127141 70011
" />
<path d="M128941 72373
L128941 71135
L128828 70910
L128603 70798
L128153 70798
L127928 70910
" />
<path d="M128941 72260
L128716 72373
L128153 72373
L127928 72260
L127816 72035
L127816 71810
L127928 71585
L128153 71473
L128716 71473
L128941 71360
" />
<path d="M131078 72260
L130853 72373
L130403 72373
L130178 72260
L130065 72148
L129953 71923
L129953 71248
L130065 71023
L130178 70910
L130403 70798
L130853 70798
L131078 70910
" />
<path d="M132090 72373
L132090 70798
" />
<path d="M132090 70011
L131978 70123
L132090 70236
L132203 70123
L132090 70011
L132090 70236
" />
<path d="M133215 70798
L133215 72373
" />
<path d="M133215 71023
L133328 70910
L133553 70798
L133890 70798
L134115 70910
L134227 71135
L134227 72373
" />
<path d="M136365 70798
L136365 72710
L136252 72935
L136140 73048
L135915 73160
L135577 73160
L135352 73048
" />
<path d="M136365 72260
L136140 72373
L135690 72373
L135465 72260
L135352 72148
L135240 71923
L135240 71248
L135352 71023
L135465 70910
L135690 70798
L136140 70798
L136365 70910
" />
<path d="M138952 70798
L139852 70798
" />
<path d="M139289 70011
L139289 72035
L139402 72260
L139627 72373
L139852 72373
" />
<path d="M140639 72373
L140639 70011
" />
<path d="M141652 72373
L141652 71135
L141539 70910
L141314 70798
L140977 70798
L140752 70910
L140639 71023
" />
<path d="M143676 72260
L143451 72373
L143001 72373
L142776 72260
L142664 72035
L142664 71135
L142776 70910
L143001 70798
L143451 70798
L143676 70910
L143789 71135
L143789 71360
L142664 71585
" />
<path d="M146601 72373
L146601 70011
" />
<path d="M146601 70910
L146826 70798
L147276 70798
L147501 70910
L147613 71023
L147726 71248
L147726 71923
L147613 72148
L147501 72260
L147276 72373
L146826 72373
L146601 72260
" />
<path d="M149076 72373
L148851 72260
L148738 72148
L148626 71923
L148626 71248
L148738 71023
L148851 70910
L149076 70798
L149413 70798
L149638 70910
L149751 71023
L149863 71248
L149863 71923
L149751 72148
L149638 72260
L149413 72373
L149076 72373
" />
<path d="M150538 70798
L151438 70798
" />
<path d="M150875 70011
L150875 72035
L150988 72260
L151213 72373
L151438 72373
" />
<path d="M151888 70798
L152788 70798
" />
<path d="M152225 70011
L152225 72035
L152338 72260
L152563 72373
L152788 72373
" />
<path d="M153912 72373
L153688 72260
L153575 72148
L153463 71923
L153463 71248
L153575 71023
L153688 70910
L153912 70798
L154250 70798
L154475 70910
L154587 71023
L154700 71248
L154700 71923
L154587 72148
L154475 72260
L154250 72373
L153912 72373
" />
<path d="M155712 72373
L155712 70798
" />
<path d="M155712 71023
L155825 70910
L156050 70798
L156387 70798
L156612 70910
L156725 71135
L156725 72373
" />
<path d="M156725 71135
L156837 70910
L157062 70798
L157400 70798
L157625 70910
L157737 71135
L157737 72373
" />
<path d="M160999 72373
L160774 72260
L160662 72148
L160549 71923
L160549 71248
L160662 71023
L160774 70910
L160999 70798
L161337 70798
L161562 70910
L161674 71023
L161787 71248
L161787 71923
L161674 72148
L161562 72260
L161337 72373
L160999 72373
" />
<path d="M162461 70798
L163361 70798
" />
<path d="M162799 72373
L162799 70348
L162911 70123
L163136 70011
L163361 70011
" />
<path d="M165611 70798
L166511 70798
" />
<path d="M165948 70011
L165948 72035
L166061 72260
L166286 72373
L166511 72373
" />
<path d="M167298 72373
L167298 70011
" />
<path d="M168311 72373
L168311 71135
L168198 70910
L167973 70798
L167636 70798
L167411 70910
L167298 71023
" />
<path d="M170335 72260
L170110 72373
L169661 72373
L169436 72260
L169323 72035
L169323 71135
L169436 70910
L169661 70798
L170110 70798
L170335 70910
L170448 71135
L170448 71360
L169323 71585
" />
<path d="M173260 70798
L173260 73160
" />
<path d="M173260 70910
L173485 70798
L173935 70798
L174160 70910
L174272 71023
L174385 71248
L174385 71923
L174272 72148
L174160 72260
L173935 72373
L173485 72373
L173260 72260
" />
<path d="M176410 72260
L176185 72373
L175735 72373
L175510 72260
L175397 72148
L175285 71923
L175285 71248
L175397 71023
L175510 70910
L175735 70798
L176185 70798
L176410 70910
" />
<path d="M177422 72373
L177422 70011
" />
<path d="M177422 70910
L177647 70798
L178097 70798
L178322 70910
L178434 71023
L178547 71248
L178547 71923
L178434 72148
L178322 72260
L178097 72373
L177647 72373
L177422 72260
" />
<path d="M179559 72148
L179672 72260
L179559 72373
L179447 72260
L179559 72148
L179559 72373
" />
<path d="M73429 77491
L74779 77491
" />
<path d="M74104 79853
L74104 77491
" />
<path d="M75566 79853
L75566 77491
" />
<path d="M76578 79853
L76578 78616
L76466 78391
L76241 78278
L75903 78278
L75679 78391
L75566 78503
" />
<path d="M78603 79741
L78378 79853
L77928 79853
L77703 79741
L77591 79516
L77591 78616
L77703 78391
L77928 78278
L78378 78278
L78603 78391
L78716 78616
L78716 78841
L77591 79066
" />
<path d="M81190 78278
L82090 78278
" />
<path d="M81528 77491
L81528 79516
L81640 79741
L81865 79853
L82090 79853
" />
<path d="M82878 79853
L82878 77491
" />
<path d="M83890 79853
L83890 78616
L83778 78391
L83553 78278
L83215 78278
L82990 78391
L82878 78503
" />
<path d="M85015 79853
L85015 78278
" />
<path d="M85015 77491
L84902 77603
L85015 77716
L85127 77603
L85015 77491
L85015 77716
" />
<path d="M87152 79741
L86927 79853
L86477 79853
L86252 79741
L86140 79628
L86027 79403
L86027 78728
L86140 78503
L86252 78391
L86477 78278
L86927 78278
L87152 78391
" />
<path d="M88164 79853
L88164 77491
" />
<path d="M88389 78953
L89064 79853
" />
<path d="M89064 78278
L88164 79178
" />
<path d="M90077 78278
L90077 79853
" />
<path d="M90077 78503
L90189 78391
L90414 78278
L90752 78278
L90977 78391
L91089 78616
L91089 79853
" />
<path d="M93114 79741
L92889 79853
L92439 79853
L92214 79741
L92101 79516
L92101 78616
L92214 78391
L92439 78278
L92889 78278
L93114 78391
L93226 78616
L93226 78841
L92101 79066
" />
<path d="M94126 79741
L94351 79853
L94801 79853
L95026 79741
L95139 79516
L95139 79403
L95026 79178
L94801 79066
L94464 79066
L94239 78953
L94126 78728
L94126 78616
L94239 78391
L94464 78278
L94801 78278
L95026 78391
" />
<path d="M96038 79741
L96263 79853
L96713 79853
L96938 79741
L97051 79516
L97051 79403
L96938 79178
L96713 79066
L96376 79066
L96151 78953
L96038 78728
L96038 78616
L96151 78391
L96376 78278
L96713 78278
L96938 78391
" />
<path d="M100200 79853
L99975 79741
L99863 79628
L99751 79403
L99751 78728
L99863 78503
L99975 78391
L100200 78278
L100538 78278
L100763 78391
L100875 78503
L100988 78728
L100988 79403
L100875 79628
L100763 79741
L100538 79853
L100200 79853
" />
<path d="M101663 78278
L102563 78278
" />
<path d="M102000 79853
L102000 77828
L102113 77603
L102338 77491
L102563 77491
" />
<path d="M104812 78278
L105712 78278
" />
<path d="M105150 77491
L105150 79516
L105262 79741
L105487 79853
L105712 79853
" />
<path d="M106500 79853
L106500 77491
" />
<path d="M107512 79853
L107512 78616
L107400 78391
L107175 78278
L106837 78278
L106612 78391
L106500 78503
" />
<path d="M109537 79741
L109312 79853
L108862 79853
L108637 79741
L108524 79516
L108524 78616
L108637 78391
L108862 78278
L109312 78278
L109537 78391
L109649 78616
L109649 78841
L108524 79066
" />
<path d="M112799 79853
L112574 79741
L112461 79628
L112349 79403
L112349 78728
L112461 78503
L112574 78391
L112799 78278
L113136 78278
L113361 78391
L113474 78503
L113586 78728
L113586 79403
L113474 79628
L113361 79741
L113136 79853
L112799 79853
" />
<path d="M115611 78278
L115611 79853
" />
<path d="M114599 78278
L114599 79516
L114711 79741
L114936 79853
L115274 79853
L115499 79741
L115611 79628
" />
<path d="M116398 78278
L117298 78278
" />
<path d="M116736 77491
L116736 79516
L116848 79741
L117073 79853
L117298 79853
" />
<path d="M118423 79853
L118198 79741
L118086 79516
L118086 77491
" />
<path d="M119323 79853
L119323 78278
" />
<path d="M119323 77491
L119211 77603
L119323 77716
L119436 77603
L119323 77491
L119323 77716
" />
<path d="M120448 78278
L120448 79853
" />
<path d="M120448 78503
L120560 78391
L120785 78278
L121123 78278
L121348 78391
L121460 78616
L121460 79853
" />
<path d="M123485 79741
L123260 79853
L122810 79853
L122585 79741
L122473 79516
L122473 78616
L122585 78391
L122810 78278
L123260 78278
L123485 78391
L123598 78616
L123598 78841
L122473 79066
" />
<path d="M126410 79853
L126410 78278
" />
<path d="M126410 77491
L126297 77603
L126410 77716
L126522 77603
L126410 77491
L126410 77716
" />
<path d="M127422 79741
L127647 79853
L128097 79853
L128322 79741
L128434 79516
L128434 79403
L128322 79178
L128097 79066
L127760 79066
L127535 78953
L127422 78728
L127422 78616
L127535 78391
L127760 78278
L128097 78278
L128322 78391
" />
<path d="M131247 79628
L131359 79741
L131247 79853
L131134 79741
L131247 79628
L131247 79853
" />
<path d="M132821 77491
L133046 77491
L133271 77603
L133384 77716
L133496 77941
L133609 78391
L133609 78953
L133496 79403
L133384 79628
L133271 79741
L133046 79853
L132821 79853
L132596 79741
L132484 79628
L132371 79403
L132259 78953
L132259 78391
L132371 77941
L132484 77716
L132596 77603
L132821 77491
" />
<path d="M135858 79853
L134509 79853
" />
<path d="M135184 79853
L135184 77491
L134959 77828
L134734 78053
L134509 78166
" />
<path d="M137996 77491
L136871 77491
L136758 78616
L136871 78503
L137096 78391
L137658 78391
L137883 78503
L137996 78616
L138108 78841
L138108 79403
L137996 79628
L137883 79741
L137658 79853
L137096 79853
L136871 79741
L136758 79628
" />
<path d="M140808 79741
L141033 79853
L141483 79853
L141708 79741
L141820 79516
L141820 79403
L141708 79178
L141483 79066
L141145 79066
L140920 78953
L140808 78728
L140808 78616
L140920 78391
L141145 78278
L141483 78278
L141708 78391
" />
<path d="M143170 79853
L142945 79741
L142833 79628
L142720 79403
L142720 78728
L142833 78503
L142945 78391
L143170 78278
L143508 78278
L143733 78391
L143845 78503
L143957 78728
L143957 79403
L143845 79628
L143733 79741
L143508 79853
L143170 79853
" />
<path d="M146545 78278
L147782 78278
L146545 79853
L147782 79853
" />
<path d="M149019 79853
L148794 79741
L148682 79628
L148569 79403
L148569 78728
L148682 78503
L148794 78391
L149019 78278
L149357 78278
L149582 78391
L149694 78503
L149807 78728
L149807 79403
L149694 79628
L149582 79741
L149357 79853
L149019 79853
" />
<path d="M151157 79853
L150932 79741
L150819 79628
L150707 79403
L150707 78728
L150819 78503
L150932 78391
L151157 78278
L151494 78278
L151719 78391
L151831 78503
L151944 78728
L151944 79403
L151831 79628
L151719 79741
L151494 79853
L151157 79853
" />
<path d="M152956 79853
L152956 78278
" />
<path d="M152956 78503
L153069 78391
L153294 78278
L153631 78278
L153856 78391
L153969 78616
L153969 79853
" />
<path d="M153969 78616
L154081 78391
L154306 78278
L154644 78278
L154869 78391
L154981 78616
L154981 79853
" />
<path d="M157906 79853
L157906 78278
" />
<path d="M157906 77491
L157793 77603
L157906 77716
L158018 77603
L157906 77491
L157906 77716
" />
<path d="M159031 78278
L159031 79853
" />
<path d="M159031 78503
L159143 78391
L159368 78278
L159706 78278
L159930 78391
L160043 78616
L160043 79853
" />
<path d="M98232 87333
L98232 84971
L98794 84971
L99132 85084
L99357 85309
L99469 85534
L99582 85984
L99582 86321
L99469 86771
L99357 86996
L99132 87221
L98794 87333
L98232 87333
" />
<path d="M101494 87221
L101269 87333
L100819 87333
L100594 87221
L100482 86996
L100482 86096
L100594 85871
L100819 85759
L101269 85759
L101494 85871
L101607 86096
L101607 86321
L100482 86546
" />
<path d="M102956 87333
L102731 87221
L102619 86996
L102619 84971
" />
<path d="M104756 87221
L104531 87333
L104081 87333
L103856 87221
L103744 86996
L103744 86096
L103856 85871
L104081 85759
L104531 85759
L104756 85871
L104869 86096
L104869 86321
L103744 86546
" />
<path d="M105544 85759
L106443 85759
" />
<path d="M105881 84971
L105881 86996
L105993 87221
L106218 87333
L106443 87333
" />
<path d="M108131 87221
L107906 87333
L107456 87333
L107231 87221
L107118 86996
L107118 86096
L107231 85871
L107456 85759
L107906 85759
L108131 85871
L108243 86096
L108243 86321
L107118 86546
" />
<path d="M110718 85759
L111618 85759
" />
<path d="M111055 84971
L111055 86996
L111168 87221
L111393 87333
L111618 87333
" />
<path d="M113305 87221
L113080 87333
L112630 87333
L112405 87221
L112293 86996
L112293 86096
L112405 85871
L112630 85759
L113080 85759
L113305 85871
L113418 86096
L113418 86321
L112293 86546
" />
<path d="M114205 87333
L115442 85759
" />
<path d="M114205 85759
L115442 87333
" />
<path d="M116005 85759
L116905 85759
" />
<path d="M116342 84971
L116342 86996
L116455 87221
L116680 87333
L116905 87333
" />
<path d="M119267 85759
L119717 87333
L120167 86209
L120617 87333
L121067 85759
" />
<path d="M121966 87333
L121966 84971
" />
<path d="M122979 87333
L122979 86096
L122866 85871
L122641 85759
L122304 85759
L122079 85871
L121966 85984
" />
<path d="M125004 87221
L124779 87333
L124329 87333
L124104 87221
L123991 86996
L123991 86096
L124104 85871
L124329 85759
L124779 85759
L125004 85871
L125116 86096
L125116 86321
L123991 86546
" />
<path d="M126128 85759
L126128 87333
" />
<path d="M126128 85984
L126241 85871
L126466 85759
L126803 85759
L127028 85871
L127141 86096
L127141 87333
" />
<path d="M131078 87333
L131078 84971
" />
<path d="M131078 87221
L130853 87333
L130403 87333
L130178 87221
L130065 87108
L129953 86883
L129953 86209
L130065 85984
L130178 85871
L130403 85759
L130853 85759
L131078 85871
" />
<path d="M132540 87333
L132315 87221
L132203 87108
L132090 86883
L132090 86209
L132203 85984
L132315 85871
L132540 85759
L132878 85759
L133103 85871
L133215 85984
L133328 86209
L133328 86883
L133215 87108
L133103 87221
L132878 87333
L132540 87333
" />
<path d="M134340 85759
L134340 87333
" />
<path d="M134340 85984
L134452 85871
L134677 85759
L135015 85759
L135240 85871
L135352 86096
L135352 87333
" />
<path d="M137377 87221
L137152 87333
L136702 87333
L136477 87221
L136365 86996
L136365 86096
L136477 85871
L136702 85759
L137152 85759
L137377 85871
L137490 86096
L137490 86321
L136365 86546
" />
</g>
<g style="fill:#000084; fill-opacity:0.0; 
stroke:#000084; stroke-width:5.90551; stroke-opacity:1; 
stroke-linecap:round; stroke-linejoin:round;">
<path d="M29329.3 57983.6 A872.244 872.244 0.0 0 0 30201.5 58855.9 " />
<circle cx="114652" cy="12832.5" r="472.441" /> 
<circle cx="114652" cy="57983.6" r="472.441" /> 
<circle cx="99701" cy="28021" r="472.441" /> 
<circle cx="139059" cy="42824" r="472.441" /> 
<circle cx="156877" cy="57983.6" r="472.441" /> 
<circle cx="156877" cy="12832.5" r="472.441" /> 
<circle cx="72426.8" cy="12832.5" r="472.441" /> 
<circle cx="72426.8" cy="57983.6" r="472.441" /> 
<circle cx="30201.5" cy="57983.6" r="472.441" /> 
<circle cx="56431" cy="42884" r="472.441" /> 
<circle cx="199102" cy="12832.5" r="472.441" /> 
<circle cx="184029" cy="27910" r="472.441" /> 
<circle cx="199102" cy="57983.6" r="472.441" /> 
<circle cx="199102" cy="35408" r="472.441" /> 
<circle cx="30201.5" cy="35408" r="472.441" /> 
<path d="M30201 58855
L199102 58855
" />
<path d="M199974 12832
L199974 57983
" />
<path d="M199102 58855.9 A872.244 872.244 0.0 0 0 199975 57983.6 " />
<path d="M199975 12832.5 A872.244 872.244 0.0 0 0 199102 11960.2 " />
<path d="M30201.5 11960.2 A872.244 872.244 0.0 0 0 29329.3 12832.5 " />
<path d="M30201 11960
L199102 11960
" />
<path d="M29329 57983
L29329 12832
" />
<circle cx="30201.5" cy="12832.5" r="472.441" /> 
<g >
</g>
</g>
<g style="fill:#000000; fill-opacity:0.0; 
stroke:#000000; stroke-width:5.90551; stroke-opacity:1; 
stroke-linecap:round; stroke-linejoin:round;">
<g >
</g>
</g> 
</svg>
